<!DOCTYPE svg PUBLIC "-//W3C//DTD SVG 20010904//EN" "http://www.w3.org/TR/2001/REC-SVG-20010904/DTD/svg10.dtd">
<svg version="1.0" xmlns="http://www.w3.org/2000/svg" width="512px" height="512px" viewBox="0 0 5000 5000" preserveAspectRatio="xMidYMid meet">
<g id="layer101" fill="#fdfefd" stroke="none">
 <path d="M2300 4869 c-41 -6 -115 -24 -165 -40 -65 -22 -99 -28 -126 -24 -61 10 -119 -30 -119 -83 0 -19 -1 -19 -41 1 -37 18 -46 19 -97 7 -163 -36 -384 -132 -529 -229 -81 -54 -263 -227 -263 -250 0 -5 -15 -12 -34 -15 -43 -8 -86 -57 -86 -96 0 -23 -6 -30 -34 -40 -78 -25 -310 -309 -402 -491 -45 -90 -91 -228 -99 -302 -6 -47 -13 -63 -41 -91 -40 -40 -45 -89 -14 -128 l19 -25 -29 -28 c-20 -19 -34 -50 -49 -104 -42 -158 -55 -259 -55 -441 0 -195 19 -302 72 -412 24 -48 26 -59 15 -74 -22 -31 -16 -80 16 -116 21 -25 29 -47 34 -89 12 -123 127 -406 224 -552 54 -82 174 -211 233 -252 33 -23 40 -34 40 -60 0 -18 9 -44 20 -58 21 -26 82 -53 99 -43 5 3 11 -5 15 -17 7 -31 171 -188 274 -265 98 -73 233 -150 326 -187 69 -27 181 -55 224 -55 13 0 38 -16 61 -40 30 -32 45 -40 73 -40 21 0 46 8 59 19 24 19 24 19 49 -4 17 -16 57 -32 125 -49 169 -41 243 -50 420 -50 185 0 261 12 379 59 61 24 67 25 88 11 12 -9 34 -16 48 -16 33 0 86 33 94 58 5 16 16 20 54 20 97 0 367 99 524 193 103 62 217 156 276 229 40 48 48 54 79 51 27 -2 40 4 69 33 33 33 36 40 32 80 -5 43 -5 44 33 55 27 8 59 35 114 94 218 234 355 477 388 686 10 68 15 80 49 112 43 40 51 87 22 127 -15 22 -15 25 4 45 21 23 62 174 84 307 6 41 12 145 12 230 1 175 -17 283 -63 384 -27 60 -27 61 -9 91 10 17 18 39 18 50 0 29 -35 82 -60 90 -18 6 -21 12 -16 36 7 38 -43 216 -100 351 -83 196 -200 363 -325 466 -59 48 -69 61 -69 88 0 54 -66 105 -119 91 -15 -4 -20 2 -25 28 -8 42 -160 189 -297 288 -172 124 -415 227 -537 227 -25 0 -42 9 -66 35 -27 29 -41 35 -74 35 -24 0 -49 -7 -62 -18 -23 -18 -24 -18 -49 10 -28 32 -100 54 -266 83 -113 20 -347 27 -445 14z m307 -129 c94 -13 223 -40 223 -47 0 -3 -25 -3 -55 1 -30 3 -105 8 -167 12 -62 3 -129 8 -148 9 -19 2 -89 4 -155 5 -66 1 -115 4 -110 6 52 22 291 30 412 14z m-704 -127 c-9 -13 -16 -23 -17 -23 -1 0 0 18 2 40 4 36 6 39 17 23 10 -14 10 -21 -2 -40z m862 -40 c-106 -20 -472 -20 -565 0 -60 13 -37 14 290 14 343 1 352 0 275 -14z m419 2 c3 -10 -1 -15 -14 -15 -20 0 -33 13 -23 24 11 11 31 6 37 -9z m270 -36 c131 -55 288 -162 403 -275 81 -78 73 -75 -77 31 -143 100 -197 136 -335 220 -113 69 -111 74 9 24z m-1980 -88 c-132 -66 -265 -135 -296 -154 -32 -20 -58 -33 -58 -31 0 19 180 144 280 195 73 36 265 108 294 108 10 1 -89 -53 -220 -118z m1506 35 c30 -33 74 -42 105 -22 23 15 24 14 44 -17 82 -133 368 -310 655 -406 104 -35 121 -43 131 -68 15 -34 53 -70 80 -75 16 -3 21 -14 27 -59 23 -181 171 -446 377 -672 62 -69 67 -77 63 -114 -3 -31 1 -46 21 -69 l25 -29 -23 -45 c-74 -146 -78 -528 -8 -807 15 -60 15 -63 -6 -89 -23 -29 -27 -64 -11 -94 8 -15 6 -20 -10 -25 -35 -11 -148 -132 -204 -217 -95 -147 -178 -326 -233 -506 -22 -73 -31 -92 -46 -92 -23 0 -77 -52 -77 -74 0 -12 -10 -16 -36 -16 -161 0 -534 -208 -723 -403 -38 -40 -47 -45 -76 -40 -23 4 -45 -1 -73 -17 l-39 -22 -39 20 c-80 40 -187 57 -369 56 -173 -1 -285 -14 -435 -53 l-75 -19 -29 25 c-25 21 -37 24 -72 19 -40 -5 -44 -3 -64 29 -77 125 -368 302 -643 392 -72 23 -117 43 -117 51 0 21 -66 82 -88 82 -16 0 -20 9 -25 53 -21 176 -164 433 -377 677 -51 58 -57 69 -53 101 4 30 -1 42 -27 73 l-32 36 20 48 c30 70 40 115 52 235 15 153 -9 417 -55 587 -14 53 -14 55 10 80 30 32 39 68 26 103 -7 19 -7 27 0 27 22 0 153 138 205 216 73 109 175 325 216 456 29 96 35 108 56 108 31 0 82 52 82 83 0 22 5 25 59 30 157 14 458 191 675 398 65 61 73 66 91 53 25 -18 70 -18 99 1 22 15 29 14 82 -4 171 -57 504 -49 749 18 91 25 88 25 115 -3z m-1220 -16 c-115 -99 -373 -252 -515 -305 -87 -33 -78 -24 55 52 58 33 190 110 294 172 104 61 192 111 195 111 3 0 -10 -13 -29 -30z m1823 -184 c152 -88 275 -161 273 -164 -3 -2 -49 15 -103 38 -156 67 -366 194 -463 280 -46 41 -44 39 293 -154z m547 -331 c0 -8 -4 -15 -9 -15 -13 0 -22 16 -14 24 11 11 23 6 23 -9z m-3387 -127 c-84 -116 -247 -367 -279 -430 -13 -27 -26 -48 -29 -48 -8 0 34 108 73 185 22 44 66 116 97 160 65 90 182 225 196 225 5 0 -21 -42 -58 -92z m3635 -92 c58 -88 133 -249 166 -354 44 -139 30 -125 -52 53 -69 149 -160 328 -216 420 -35 58 54 -46 102 -119z m-3523 38 c-65 -159 -197 -380 -279 -469 l-37 -40 25 45 c180 316 321 558 324 556 2 -2 -13 -44 -33 -92z m3316 4 c12 -24 70 -126 129 -228 59 -102 126 -221 149 -265 36 -67 38 -75 16 -50 -88 98 -250 379 -304 528 -24 67 -20 74 10 15z m-3724 -605 c-3 -3 -11 -2 -17 2 -9 6 -9 10 1 16 14 8 27 -7 16 -18z m4193 -205 c0 -7 -4 -19 -9 -27 -11 -17 -25 3 -17 24 7 18 26 20 26 3z m-4191 -316 c8 -132 -2 -375 -18 -442 -6 -22 -9 99 -9 320 0 362 9 400 27 122z m-139 65 c-6 -56 -14 -194 -17 -307 -7 -227 -19 -235 -30 -20 -6 131 5 257 35 389 21 97 27 69 12 -62z m4268 -222 c1 -399 -12 -442 -34 -105 -7 115 15 430 31 430 1 0 3 -146 3 -325z m157 100 c2 -82 -1 -179 -6 -215 -10 -73 -49 -253 -54 -248 -2 2 3 64 10 138 18 184 24 295 26 425 1 164 20 89 24 -100z m-4340 -565 c-10 -16 -35 7 -28 27 5 13 7 13 21 0 8 -8 11 -20 7 -27z m4189 -178 c2 -4 -4 -13 -15 -20 -16 -11 -19 -9 -19 8 0 19 24 28 34 12z m-3967 -182 c62 -88 154 -250 191 -335 35 -82 49 -125 35 -110 -10 10 -265 450 -311 535 l-24 45 32 -35 c17 -19 52 -64 77 -100z m3829 58 c-14 -24 -94 -163 -178 -310 -84 -147 -154 -266 -155 -264 -14 14 116 282 199 412 42 64 148 204 156 204 2 0 -8 -19 -22 -42z m-3942 -139 c58 -127 162 -326 220 -424 30 -50 -57 48 -100 112 -57 86 -122 223 -159 339 -32 95 -42 135 -31 123 2 -2 34 -70 70 -150z m4047 30 c-43 -125 -134 -275 -253 -416 -85 -101 -116 -116 -51 -26 87 122 227 338 273 420 25 45 46 80 48 79 1 -2 -6 -27 -17 -57z m-3641 -569 c0 -6 -9 -10 -20 -10 -13 0 -20 7 -20 20 0 18 3 19 20 10 11 -6 20 -15 20 -20z m450 -245 c107 -54 295 -175 355 -231 30 -27 33 -32 12 -19 -16 9 -151 86 -300 172 -150 85 -276 160 -282 165 -18 17 117 -38 215 -87z m2181 -95 c-270 -155 -341 -194 -341 -186 0 10 182 137 275 191 97 58 286 144 314 145 7 0 -104 -67 -248 -150z m-2366 45 c103 -76 234 -163 370 -245 120 -72 122 -78 11 -34 -132 53 -329 188 -431 295 -57 59 -49 56 50 -16z m2675 -30 c-37 -40 -158 -119 -255 -168 -93 -46 -298 -121 -316 -115 -6 2 47 30 118 62 140 64 352 173 423 217 55 35 60 36 30 4z m-1190 -270 c226 -14 151 -23 -185 -23 -228 0 -338 3 -315 9 19 5 94 12 165 15 72 4 132 8 134 10 2 2 27 2 55 -1 28 -2 94 -7 146 -10z m-820 -11 c0 -17 -22 -14 -28 4 -2 7 3 12 12 12 9 0 16 -7 16 -16z m1127 -71 c-8 -7 -37 9 -31 19 3 5 12 4 20 -3 8 -6 13 -14 11 -16z m-607 -58 c101 -8 243 -15 315 -16 104 -1 124 -3 100 -11 -16 -6 -115 -11 -220 -12 -165 0 -204 3 -298 23 -59 13 -110 27 -112 31 -3 5 3 6 12 4 10 -2 101 -11 203 -19z"/>
 <path d="M2396 3531 c-5 -7 -31 -9 -74 -6 -55 4 -71 1 -91 -14 l-24 -18 22 -37 c19 -29 33 -39 79 -51 143 -40 206 -82 237 -157 28 -70 22 -123 -25 -234 -51 -119 -70 -178 -70 -220 0 -70 -62 -109 -213 -131 -56 -8 -123 -23 -149 -33 -46 -17 -48 -17 -48 0 0 10 -13 29 -29 42 -26 23 -35 24 -108 20 -67 -3 -86 -1 -121 17 -23 12 -42 27 -42 34 0 6 -11 26 -24 42 -20 24 -27 28 -37 17 -11 -10 -11 -18 0 -45 7 -17 14 -41 15 -52 5 -43 26 -64 81 -80 45 -14 55 -20 55 -38 0 -14 -13 -30 -34 -44 -19 -12 -45 -41 -58 -65 -19 -36 -32 -46 -74 -59 -27 -9 -64 -24 -81 -33 -18 -9 -50 -16 -72 -16 -37 0 -42 3 -62 41 -27 54 -56 79 -154 139 -44 27 -100 70 -125 95 -76 78 -133 94 -197 55 -42 -25 -47 -75 -10 -89 37 -14 83 -74 106 -138 12 -32 26 -66 31 -75 9 -15 -2 -68 -13 -68 -2 0 -28 8 -58 18 -73 25 -200 24 -229 -3 -24 -21 -20 -65 12 -128 22 -43 52 -64 160 -109 69 -29 78 -36 78 -59 0 -41 29 -60 91 -59 65 1 190 -21 243 -44 65 -27 110 -21 220 32 96 45 105 47 186 47 71 0 94 -4 140 -26 96 -46 214 -56 390 -34 68 8 182 15 251 15 131 0 230 14 341 48 35 11 97 23 138 27 41 4 147 20 235 37 138 26 190 30 375 34 127 2 256 11 315 20 174 28 352 89 342 117 -5 15 -50 14 -189 -3 -157 -20 -240 -7 -421 68 -182 76 -242 95 -406 132 -143 32 -205 55 -258 96 -48 36 -113 64 -153 64 -28 0 -41 7 -63 35 l-29 36 41 40 c22 23 57 74 76 115 29 60 46 82 90 114 29 22 56 44 60 50 3 5 8 38 11 72 3 35 12 95 21 135 8 39 13 82 10 95 -4 12 -41 52 -84 87 -64 53 -87 66 -128 73 -30 4 -53 4 -59 -2 -6 -6 -29 -10 -52 -10 -55 0 -63 -15 -27 -51 23 -24 39 -30 80 -32 59 -4 85 -26 103 -87 14 -48 13 -78 -6 -141 -19 -63 -76 -124 -142 -151 -41 -16 -42 -16 -55 5 -8 14 -12 64 -12 137 l0 116 -62 77 c-34 43 -67 94 -73 115 -15 59 -45 80 -121 88 -45 4 -69 3 -73 -5z m-1143 -1405 c5 -12 1 -13 -24 -4 -35 12 -37 18 -5 18 13 0 26 -6 29 -14z"/>
 </g>
<g id="layer102" fill="#2a3036" stroke="none">
 <path d="M2295 4763 c-62 -7 -175 -35 -180 -43 -3 -5 -1 -11 5 -15 5 -3 122 -8 259 -10 138 -2 254 -6 258 -8 8 -4 188 -20 248 -21 44 -1 43 16 -2 32 -161 57 -423 86 -588 65z"/>
 <path d="M1885 4730 c-5 -8 -9 -39 -18 -135 -3 -33 29 -29 50 8 18 29 18 36 7 52 -8 10 -14 31 -14 46 0 29 -14 46 -25 29z"/>
 <path d="M2997 4656 c-15 -18 -24 -36 -20 -39 11 -12 63 24 63 43 0 33 -17 31 -43 -4z"/>
 <path d="M1715 4595 c-188 -42 -416 -153 -556 -271 -58 -48 -102 -101 -91 -108 4 -2 39 16 77 40 71 46 489 258 603 307 35 15 60 31 57 37 -7 12 -13 12 -90 -5z"/>
 <path d="M2104 4598 c-11 -17 10 -28 92 -44 201 -41 751 -5 719 46 -9 14 -802 12 -811 -2z"/>
 <path d="M3136 4597 c-27 -20 -5 -57 34 -57 37 0 46 15 26 45 -19 28 -34 31 -60 12z"/>
 <path d="M3276 4601 c-4 -6 16 -22 45 -37 65 -33 263 -154 349 -212 133 -92 236 -166 258 -186 16 -14 25 -17 33 -9 15 15 -137 169 -241 245 -177 129 -420 238 -444 199z"/>
 <path d="M1719 4481 c-57 -32 -171 -98 -254 -148 -82 -49 -192 -113 -242 -142 -88 -50 -104 -63 -85 -75 15 -9 168 50 277 108 185 98 447 291 419 309 -6 3 -58 -20 -115 -52z"/>
 <path d="M2865 4509 c-245 -67 -578 -75 -749 -18 -53 18 -60 19 -82 4 -29 -19 -74 -19 -99 -1 -18 13 -26 8 -91 -53 -217 -206 -512 -381 -676 -399 -63 -7 -68 -11 -85 -67 -6 -21 -17 -32 -38 -38 -17 -5 -36 -12 -43 -16 -7 -3 -31 -59 -52 -123 -43 -134 -136 -333 -205 -439 -54 -84 -134 -172 -187 -205 -34 -22 -37 -26 -27 -51 14 -37 2 -79 -27 -101 l-25 -18 19 -79 c26 -102 39 -190 52 -341 17 -188 -11 -399 -64 -493 -13 -23 -11 -27 21 -58 31 -28 35 -37 30 -70 -4 -35 1 -44 53 -103 219 -251 365 -517 375 -685 4 -59 4 -60 37 -66 46 -7 56 -15 76 -56 16 -33 25 -38 137 -75 285 -95 545 -252 632 -384 30 -45 38 -52 54 -44 30 17 66 11 96 -14 l28 -24 75 19 c150 39 262 52 435 53 187 1 289 -16 378 -60 39 -20 48 -22 53 -10 8 21 60 39 93 33 24 -5 35 1 72 40 57 59 182 156 289 226 163 105 303 164 419 176 61 6 65 8 73 36 9 35 33 55 65 55 13 0 25 6 27 13 2 6 16 53 31 102 93 312 268 607 414 699 35 23 40 29 31 46 -16 30 -12 65 11 94 21 26 21 29 6 89 -32 126 -49 282 -49 442 0 179 16 285 58 368 l25 49 -26 24 c-23 21 -26 32 -23 66 4 38 0 45 -63 115 -212 232 -359 499 -378 682 -6 62 -7 64 -36 68 -38 5 -63 28 -73 67 -8 28 -16 33 -144 76 -303 103 -568 266 -645 397 -14 24 -27 43 -29 43 -3 0 -16 -7 -29 -16 -31 -20 -75 -11 -105 22 -27 28 -24 28 -115 3z m-318 -1011 c7 -6 17 -28 23 -49 6 -21 40 -75 76 -120 l66 -83 -7 -86 c-7 -88 2 -149 28 -184 12 -17 16 -16 70 9 157 75 215 258 118 374 -25 30 -35 35 -82 37 -37 3 -59 10 -73 24 l-20 20 40 0 c22 0 44 4 50 10 6 6 29 6 60 2 40 -7 64 -20 117 -63 36 -30 69 -65 73 -77 4 -13 -1 -56 -9 -95 -9 -40 -19 -101 -21 -137 -4 -52 -10 -68 -28 -83 -82 -63 -99 -82 -129 -145 -18 -37 -53 -88 -77 -114 l-45 -46 38 -46 c32 -39 43 -46 74 -46 41 0 106 -27 154 -64 53 -41 115 -64 258 -96 164 -37 224 -56 406 -132 208 -86 274 -92 553 -52 l35 5 -26 -15 c-41 -24 -183 -62 -294 -80 -59 -9 -188 -18 -315 -20 -185 -4 -237 -8 -375 -34 -88 -17 -194 -33 -235 -37 -41 -4 -103 -16 -138 -27 -111 -34 -210 -48 -341 -48 -69 0 -183 -7 -251 -15 -176 -22 -294 -12 -390 34 -46 22 -69 26 -140 26 -81 0 -90 -2 -186 -47 -110 -53 -155 -59 -220 -32 -48 21 -180 45 -254 47 -54 2 -55 2 -60 36 -6 38 -1 35 -130 94 -86 39 -97 47 -112 83 -25 58 -31 101 -16 110 25 16 162 11 217 -8 43 -14 57 -15 69 -6 22 19 33 56 22 76 -5 9 -20 44 -31 77 -16 43 -37 75 -75 114 -60 60 -66 82 -29 99 62 28 114 10 185 -63 25 -25 82 -69 127 -96 81 -49 102 -69 146 -139 30 -47 77 -52 157 -16 32 14 64 26 73 26 23 0 73 45 87 79 6 16 29 41 51 55 65 43 47 93 -38 111 -32 6 -61 30 -50 41 3 4 -3 24 -14 46 -11 22 -19 44 -17 50 2 5 13 -8 24 -29 11 -21 37 -48 59 -61 35 -19 52 -22 126 -20 90 3 119 -7 119 -41 0 -34 19 -39 68 -21 26 10 93 25 149 33 55 8 117 23 137 32 52 25 96 79 96 118 0 43 19 101 70 221 29 69 42 113 42 145 0 121 -92 219 -245 257 -47 12 -73 24 -87 42 -20 24 -20 25 -1 38 12 9 39 12 84 8 43 -3 68 0 73 7 8 14 122 3 141 -13z"/>
 <path d="M1190 2145 c-16 -19 -7 -28 39 -44 45 -15 60 -1 37 33 -19 29 -57 34 -76 11z"/>
 <path d="M3214 4509 c-8 -14 84 -102 171 -163 188 -131 510 -285 538 -257 12 12 -35 42 -348 221 -137 79 -273 158 -302 176 -33 21 -55 29 -59 23z"/>
 <path d="M1024 4136 c-8 -21 -1 -49 13 -53 15 -5 47 42 38 57 -9 15 -45 12 -51 -4z"/>
 <path d="M4031 4109 c-19 -8 -21 -12 -11 -24 17 -20 27 -19 40 4 13 24 2 31 -29 20z"/>
 <path d="M4091 3971 c-15 -27 -15 -29 19 -46 26 -14 31 -14 36 -1 3 8 4 25 2 38 -4 30 -43 37 -57 9z"/>
 <path d="M743 3883 c-151 -153 -269 -341 -324 -511 -16 -51 -20 -75 -12 -83 7 -7 27 19 66 89 69 124 184 301 294 455 61 85 82 122 75 129 -8 8 -36 -15 -99 -79z"/>
 <path d="M880 3893 c-13 -21 -99 -170 -191 -331 -93 -161 -176 -304 -185 -317 -33 -51 7 -32 66 32 68 72 155 199 225 327 43 79 120 262 127 300 6 34 -19 28 -42 -11z"/>
 <path d="M4227 3914 c-3 -4 10 -32 30 -63 51 -80 189 -352 258 -511 64 -147 69 -155 83 -146 6 3 4 31 -4 73 -44 209 -165 456 -293 596 -52 56 -62 63 -74 51z"/>
 <path d="M4118 3875 c-18 -18 56 -211 134 -350 103 -182 255 -384 279 -369 10 6 -11 46 -154 294 -49 85 -121 211 -159 280 -72 129 -90 155 -100 145z"/>
 <path d="M422 3203 c-16 -14 -18 -23 -12 -40 14 -34 55 -16 55 22 0 35 -15 41 -43 18z"/>
 <path d="M334 3059 c-4 -7 3 -19 17 -30 29 -21 41 -16 30 14 -9 25 -35 34 -47 16z"/>
 <path d="M4607 2982 c-22 -24 -21 -35 2 -56 19 -17 20 -17 37 9 28 43 -6 83 -39 47z"/>
 <path d="M319 2924 c-52 -134 -84 -365 -76 -539 6 -119 33 -245 52 -248 6 -1 12 84 16 228 4 127 14 306 24 399 11 117 13 172 6 179 -7 7 -14 1 -22 -19z"/>
 <path d="M405 2937 c-9 -23 0 -822 9 -822 50 0 77 444 42 688 -18 123 -37 173 -51 134z"/>
 <path d="M4575 2879 c-49 -78 -66 -433 -34 -682 13 -100 25 -135 42 -118 9 9 13 113 14 406 2 361 -2 428 -22 394z"/>
 <path d="M4696 2869 c-2 -8 -7 -111 -9 -229 -3 -118 -13 -291 -22 -383 -12 -121 -14 -172 -6 -180 7 -7 15 0 26 26 19 46 51 181 63 272 15 106 8 348 -12 425 -19 69 -32 93 -40 69z"/>
 <path d="M355 2070 c-17 -33 -17 -34 6 -51 17 -12 28 -15 41 -8 24 13 23 28 -6 64 l-23 29 -18 -34z"/>
 <path d="M4537 1873 c-11 -10 -8 -61 3 -68 6 -3 24 3 40 15 25 18 28 25 20 41 -10 18 -50 26 -63 12z"/>
 <path d="M475 1850 c-8 -12 31 -84 216 -402 76 -131 148 -256 159 -279 16 -30 25 -38 33 -30 30 30 -93 303 -226 501 -45 68 -165 220 -173 220 -1 0 -6 -5 -9 -10z"/>
 <path d="M405 1811 c-28 -47 96 -378 201 -538 48 -72 169 -200 177 -187 3 5 -15 43 -40 84 -67 110 -183 335 -254 495 -67 151 -73 163 -84 146z"/>
 <path d="M4453 1773 c-125 -125 -281 -388 -357 -600 -14 -40 -21 -75 -16 -78 15 -9 51 48 227 355 93 162 176 307 186 322 29 42 2 43 -40 1z"/>
 <path d="M4545 1680 c-62 -123 -211 -355 -346 -540 -96 -131 -3 -81 121 65 130 155 229 325 265 460 13 47 15 69 7 77 -7 7 -21 -10 -47 -62z"/>
 <path d="M854 1086 c-12 -31 1 -60 29 -67 21 -6 29 -3 37 11 16 29 12 38 -20 55 -36 19 -39 19 -46 1z"/>
 <path d="M4067 1033 c-2 -4 -5 -27 -4 -51 0 -35 4 -45 21 -52 33 -12 36 -4 17 50 -19 54 -26 66 -34 53z"/>
 <path d="M1075 930 c-8 -13 53 -52 328 -209 137 -78 277 -160 312 -181 88 -54 98 -33 19 38 -116 106 -365 255 -534 320 -93 35 -119 42 -125 32z"/>
 <path d="M3916 898 c-19 -27 -8 -41 30 -36 34 4 38 25 7 45 -19 13 -23 12 -37 -9z"/>
 <path d="M3795 881 c-134 -38 -339 -145 -495 -259 -90 -65 -161 -132 -154 -144 3 -5 31 6 62 23 274 154 640 364 650 374 23 21 0 23 -63 6z"/>
 <path d="M1026 871 c-11 -17 141 -168 254 -253 158 -118 409 -233 441 -201 7 7 -15 24 -73 55 -145 77 -407 250 -580 381 -21 17 -39 24 -42 18z"/>
 <path d="M3815 738 c-90 -55 -346 -183 -509 -255 -59 -27 -106 -53 -105 -58 7 -18 93 -5 198 31 190 65 374 170 471 269 64 66 40 72 -55 13z"/>
 <path d="M2458 484 c-2 -2 -48 -4 -103 -5 -88 -2 -235 -20 -274 -34 -11 -4 -11 -8 -1 -20 11 -13 67 -15 409 -13 246 2 395 7 394 13 -3 15 -68 34 -156 44 -88 11 -264 21 -269 15z"/>
 <path d="M1787 473 c-3 -5 3 -23 15 -41 17 -27 23 -30 39 -21 14 7 19 19 17 37 -2 22 -9 28 -35 30 -17 2 -33 -1 -36 -5z"/>
 <path d="M2928 409 c-24 -14 -22 -26 7 -45 20 -13 28 -14 40 -4 12 10 12 15 -2 36 -17 27 -21 28 -45 13z"/>
 <path d="M1945 370 c-11 -17 5 -32 21 -19 7 6 11 15 8 20 -7 12 -21 11 -29 -1z"/>
 <path d="M2065 351 c-9 -16 49 -38 180 -69 99 -23 129 -26 305 -25 162 0 206 3 258 19 35 10 63 24 63 29 -1 6 -87 12 -223 16 -197 6 -315 14 -519 35 -37 4 -59 2 -64 -5z"/>
 </g>

</svg>
